solid OpenSCAD_Model
  facet normal 0.994522 0.104528 0
    outer loop
      vertex 23.5 0 0.5
      vertex 22.9865 4.88592 -0.5
      vertex 22.9865 4.88592 0.5
    endloop
  endfacet
  facet normal 0.994522 0.104528 0
    outer loop
      vertex 22.9865 4.88592 -0.5
      vertex 23.5 0 0.5
      vertex 23.5 0 -0.5
    endloop
  endfacet
  facet normal -0.994522 0.104528 0
    outer loop
      vertex -23.5 0 -0.5
      vertex -22.9865 4.88592 0.5
      vertex -22.9865 4.88592 -0.5
    endloop
  endfacet
  facet normal -0.994522 0.104528 0
    outer loop
      vertex -22.9865 4.88592 0.5
      vertex -23.5 0 -0.5
      vertex -23.5 0 0.5
    endloop
  endfacet
  facet normal 0 1 -0
    outer loop
      vertex 2.45642 23.3713 -0.5
      vertex -2.45642 23.3713 0.5
      vertex 2.45642 23.3713 0.5
    endloop
  endfacet
  facet normal 0 1 0
    outer loop
      vertex -2.45642 23.3713 0.5
      vertex 2.45642 23.3713 -0.5
      vertex -2.45642 23.3713 -0.5
    endloop
  endfacet
  facet normal 0 -1 0
    outer loop
      vertex -2.45642 -23.3713 -0.5
      vertex 2.45642 -23.3713 0.5
      vertex -2.45642 -23.3713 0.5
    endloop
  endfacet
  facet normal 0 -1 -0
    outer loop
      vertex 2.45642 -23.3713 0.5
      vertex -2.45642 -23.3713 -0.5
      vertex 2.45642 -23.3713 -0.5
    endloop
  endfacet
  facet normal 0.587786 0.809017 -0
    outer loop
      vertex 15.7246 17.4639 -0.5
      vertex 11.75 20.3516 0.5
      vertex 15.7246 17.4639 0.5
    endloop
  endfacet
  facet normal 0.587786 0.809017 0
    outer loop
      vertex 11.75 20.3516 0.5
      vertex 15.7246 17.4639 -0.5
      vertex 11.75 20.3516 -0.5
    endloop
  endfacet
  facet normal -0.743145 0.669131 0
    outer loop
      vertex -19.0119 13.813 -0.5
      vertex -15.7246 17.4639 0.5
      vertex -15.7246 17.4639 -0.5
    endloop
  endfacet
  facet normal -0.743145 0.669131 0
    outer loop
      vertex -15.7246 17.4639 0.5
      vertex -19.0119 13.813 -0.5
      vertex -19.0119 13.813 0.5
    endloop
  endfacet
  facet normal -0.866025 0.5 0
    outer loop
      vertex -21.4683 9.55831 -0.5
      vertex -19.0119 13.813 0.5
      vertex -19.0119 13.813 -0.5
    endloop
  endfacet
  facet normal -0.866025 0.5 0
    outer loop
      vertex -19.0119 13.813 0.5
      vertex -21.4683 9.55831 -0.5
      vertex -21.4683 9.55831 0.5
    endloop
  endfacet
  facet normal -0.406736 0.913546 0
    outer loop
      vertex -7.2619 22.3498 -0.5
      vertex -11.75 20.3516 0.5
      vertex -7.2619 22.3498 0.5
    endloop
  endfacet
  facet normal -0.406736 0.913546 0
    outer loop
      vertex -11.75 20.3516 0.5
      vertex -7.2619 22.3498 -0.5
      vertex -11.75 20.3516 -0.5
    endloop
  endfacet
  facet normal 0.866025 0.5 0
    outer loop
      vertex 21.4683 9.55831 0.5
      vertex 19.0119 13.813 -0.5
      vertex 19.0119 13.813 0.5
    endloop
  endfacet
  facet normal 0.866025 0.5 0
    outer loop
      vertex 19.0119 13.813 -0.5
      vertex 21.4683 9.55831 0.5
      vertex 21.4683 9.55831 -0.5
    endloop
  endfacet
  facet normal 0.951057 0.309017 0
    outer loop
      vertex 22.9865 4.88592 0.5
      vertex 21.4683 9.55831 -0.5
      vertex 21.4683 9.55831 0.5
    endloop
  endfacet
  facet normal 0.951057 0.309017 0
    outer loop
      vertex 21.4683 9.55831 -0.5
      vertex 22.9865 4.88592 0.5
      vertex 22.9865 4.88592 -0.5
    endloop
  endfacet
  facet normal 0.743145 0.669131 0
    outer loop
      vertex 19.0119 13.813 0.5
      vertex 15.7246 17.4639 -0.5
      vertex 15.7246 17.4639 0.5
    endloop
  endfacet
  facet normal 0.743145 0.669131 0
    outer loop
      vertex 15.7246 17.4639 -0.5
      vertex 19.0119 13.813 0.5
      vertex 19.0119 13.813 -0.5
    endloop
  endfacet
  facet normal 0.207912 0.978148 -0
    outer loop
      vertex 7.2619 22.3498 -0.5
      vertex 2.45642 23.3713 0.5
      vertex 7.2619 22.3498 0.5
    endloop
  endfacet
  facet normal 0.207912 0.978148 0
    outer loop
      vertex 2.45642 23.3713 0.5
      vertex 7.2619 22.3498 -0.5
      vertex 2.45642 23.3713 -0.5
    endloop
  endfacet
  facet normal 0.406736 0.913546 -0
    outer loop
      vertex 11.75 20.3516 -0.5
      vertex 7.2619 22.3498 0.5
      vertex 11.75 20.3516 0.5
    endloop
  endfacet
  facet normal 0.406736 0.913546 0
    outer loop
      vertex 7.2619 22.3498 0.5
      vertex 11.75 20.3516 -0.5
      vertex 7.2619 22.3498 -0.5
    endloop
  endfacet
  facet normal -0.951057 0.309017 0
    outer loop
      vertex -22.9865 4.88592 -0.5
      vertex -21.4683 9.55831 0.5
      vertex -21.4683 9.55831 -0.5
    endloop
  endfacet
  facet normal -0.951057 0.309017 0
    outer loop
      vertex -21.4683 9.55831 0.5
      vertex -22.9865 4.88592 -0.5
      vertex -22.9865 4.88592 0.5
    endloop
  endfacet
  facet normal -0 0 1
    outer loop
      vertex -8.16339 13.2349 0.5
      vertex 15.55 0 0.5
      vertex -6.90335 14.7189 0.5
    endloop
  endfacet
  facet normal 0 0 1
    outer loop
      vertex 15.55 0 0.5
      vertex -6.90335 -14.7189 0.5
      vertex -6.75625 -16.6601 0.5
    endloop
  endfacet
  facet normal 0 0 1
    outer loop
      vertex -8.16339 -13.2349 0.5
      vertex 15.55 0 0.5
      vertex -8.16339 13.2349 0.5
    endloop
  endfacet
  facet normal 0 0 1
    outer loop
      vertex 15.55 0 0.5
      vertex -8.16339 -13.2349 0.5
      vertex -6.90335 -14.7189 0.5
    endloop
  endfacet
  facet normal -0 0 1
    outer loop
      vertex -10.0551 12.7749 0.5
      vertex -8.16339 -13.2349 0.5
      vertex -8.16339 13.2349 0.5
    endloop
  endfacet
  facet normal 0 0 1
    outer loop
      vertex -10.0551 12.7749 0.5
      vertex -10.0551 -12.7749 0.5
      vertex -8.16339 -13.2349 0.5
    endloop
  endfacet
  facet normal 0 0 1
    outer loop
      vertex -21.4683 9.55831 0.5
      vertex -10.0551 12.7749 0.5
      vertex -11.8558 13.5147 0.5
    endloop
  endfacet
  facet normal 0 0 1
    outer loop
      vertex -10.0551 12.7749 0.5
      vertex -23.5 0 0.5
      vertex -10.0551 -12.7749 0.5
    endloop
  endfacet
  facet normal -0 0 1
    outer loop
      vertex -19.0119 13.813 0.5
      vertex -11.8558 13.5147 0.5
      vertex -12.8779 15.1716 0.5
    endloop
  endfacet
  facet normal -0 -0 1
    outer loop
      vertex -22.9865 -4.88592 0.5
      vertex -10.0551 -12.7749 0.5
      vertex -23.5 0 0.5
    endloop
  endfacet
  facet normal 0 0 1
    outer loop
      vertex 2.45642 -23.3713 0.5
      vertex -6.75625 -16.6601 0.5
      vertex -2.45642 -23.3713 0.5
    endloop
  endfacet
  facet normal -0 0 1
    outer loop
      vertex -7.77828 -18.3171 0.5
      vertex -2.45642 -23.3713 0.5
      vertex -6.75625 -16.6601 0.5
    endloop
  endfacet
  facet normal 0 0 1
    outer loop
      vertex -2.45642 -23.3713 0.5
      vertex -7.77828 -18.3171 0.5
      vertex -7.2619 -22.3498 0.5
    endloop
  endfacet
  facet normal -0 0 1
    outer loop
      vertex -9.57905 -19.0569 0.5
      vertex -7.2619 -22.3498 0.5
      vertex -7.77828 -18.3171 0.5
    endloop
  endfacet
  facet normal 0 0 1
    outer loop
      vertex -11.75 -20.3516 0.5
      vertex -9.57905 -19.0569 0.5
      vertex -11.4707 -18.5969 0.5
    endloop
  endfacet
  facet normal 0 0 1
    outer loop
      vertex -9.57905 -19.0569 0.5
      vertex -11.75 -20.3516 0.5
      vertex -7.2619 -22.3498 0.5
    endloop
  endfacet
  facet normal 0 0 1
    outer loop
      vertex -12.7308 -17.1129 0.5
      vertex -11.75 -20.3516 0.5
      vertex -11.4707 -18.5969 0.5
    endloop
  endfacet
  facet normal 0 0 1
    outer loop
      vertex -11.8558 13.5147 0.5
      vertex -19.0119 13.813 0.5
      vertex -21.4683 9.55831 0.5
    endloop
  endfacet
  facet normal 0 0 1
    outer loop
      vertex -12.7308 -17.1129 0.5
      vertex -15.7246 -17.4639 0.5
      vertex -11.75 -20.3516 0.5
    endloop
  endfacet
  facet normal 0 0 1
    outer loop
      vertex -10.0551 12.7749 0.5
      vertex -21.4683 9.55831 0.5
      vertex -22.9865 4.88592 0.5
    endloop
  endfacet
  facet normal 0 0 1
    outer loop
      vertex -10.0551 12.7749 0.5
      vertex -22.9865 4.88592 0.5
      vertex -23.5 0 0.5
    endloop
  endfacet
  facet normal 0 0 1
    outer loop
      vertex -12.8779 -15.1716 0.5
      vertex -15.7246 -17.4639 0.5
      vertex -12.7308 -17.1129 0.5
    endloop
  endfacet
  facet normal -0 -0 1
    outer loop
      vertex -21.4683 -9.55831 0.5
      vertex -10.0551 -12.7749 0.5
      vertex -22.9865 -4.88592 0.5
    endloop
  endfacet
  facet normal 0 -0 1
    outer loop
      vertex -15.7246 -17.4639 0.5
      vertex -12.8779 -15.1716 0.5
      vertex -19.0119 -13.813 0.5
    endloop
  endfacet
  facet normal 0 0 1
    outer loop
      vertex -10.0551 -12.7749 0.5
      vertex -21.4683 -9.55831 0.5
      vertex -11.8558 -13.5147 0.5
    endloop
  endfacet
  facet normal 0 0 1
    outer loop
      vertex -11.8558 -13.5147 0.5
      vertex -19.0119 -13.813 0.5
      vertex -12.8779 -15.1716 0.5
    endloop
  endfacet
  facet normal 0 -0 1
    outer loop
      vertex -19.0119 -13.813 0.5
      vertex -11.8558 -13.5147 0.5
      vertex -21.4683 -9.55831 0.5
    endloop
  endfacet
  facet normal -0 0 1
    outer loop
      vertex 21.2484 1.85152 0.5
      vertex 23.5 0 0.5
      vertex 22.9865 4.88592 0.5
    endloop
  endfacet
  facet normal 0 0 1
    outer loop
      vertex 21.2484 -1.85152 0.5
      vertex 23.5 0 0.5
      vertex 21.85 0 0.5
    endloop
  endfacet
  facet normal 0 0 1
    outer loop
      vertex 19.6734 2.99583 0.5
      vertex 22.9865 4.88592 0.5
      vertex 21.4683 9.55831 0.5
    endloop
  endfacet
  facet normal 0 0 1
    outer loop
      vertex 23.5 0 0.5
      vertex 21.2484 1.85152 0.5
      vertex 21.85 0 0.5
    endloop
  endfacet
  facet normal 0 0 1
    outer loop
      vertex 22.9865 4.88592 0.5
      vertex 19.6734 2.99583 0.5
      vertex 21.2484 1.85152 0.5
    endloop
  endfacet
  facet normal 0 0 1
    outer loop
      vertex 17.7266 2.99583 0.5
      vertex 21.4683 9.55831 0.5
      vertex 19.0119 13.813 0.5
    endloop
  endfacet
  facet normal 0 0 1
    outer loop
      vertex 21.4683 9.55831 0.5
      vertex 17.7266 2.99583 0.5
      vertex 19.6734 2.99583 0.5
    endloop
  endfacet
  facet normal 0 0 1
    outer loop
      vertex 19.0119 13.813 0.5
      vertex 16.1516 1.85152 0.5
      vertex 17.7266 2.99583 0.5
    endloop
  endfacet
  facet normal 0 0 1
    outer loop
      vertex 15.7246 17.4639 0.5
      vertex 16.1516 1.85152 0.5
      vertex 19.0119 13.813 0.5
    endloop
  endfacet
  facet normal 0 0 1
    outer loop
      vertex 11.75 20.3516 0.5
      vertex 16.1516 1.85152 0.5
      vertex 15.7246 17.4639 0.5
    endloop
  endfacet
  facet normal 0 0 1
    outer loop
      vertex 7.2619 22.3498 0.5
      vertex -6.90335 14.7189 0.5
      vertex 11.75 20.3516 0.5
    endloop
  endfacet
  facet normal 0 0 1
    outer loop
      vertex 23.5 0 0.5
      vertex 21.2484 -1.85152 0.5
      vertex 22.9865 -4.88592 0.5
    endloop
  endfacet
  facet normal -0 0 1
    outer loop
      vertex 19.6734 -2.99583 0.5
      vertex 22.9865 -4.88592 0.5
      vertex 21.2484 -1.85152 0.5
    endloop
  endfacet
  facet normal 0 0 1
    outer loop
      vertex 22.9865 -4.88592 0.5
      vertex 19.6734 -2.99583 0.5
      vertex 21.4683 -9.55831 0.5
    endloop
  endfacet
  facet normal -0 0 1
    outer loop
      vertex 17.7266 -2.99583 0.5
      vertex 21.4683 -9.55831 0.5
      vertex 19.6734 -2.99583 0.5
    endloop
  endfacet
  facet normal 0 0 1
    outer loop
      vertex 21.4683 -9.55831 0.5
      vertex 17.7266 -2.99583 0.5
      vertex 19.0119 -13.813 0.5
    endloop
  endfacet
  facet normal 0 0 1
    outer loop
      vertex 16.1516 -1.85152 0.5
      vertex 19.0119 -13.813 0.5
      vertex 17.7266 -2.99583 0.5
    endloop
  endfacet
  facet normal 0 0 1
    outer loop
      vertex 16.1516 -1.85152 0.5
      vertex 15.7246 -17.4639 0.5
      vertex 19.0119 -13.813 0.5
    endloop
  endfacet
  facet normal 0 0 1
    outer loop
      vertex -6.75625 -16.6601 0.5
      vertex 16.1516 -1.85152 0.5
      vertex 15.55 0 0.5
    endloop
  endfacet
  facet normal 0 0 1
    outer loop
      vertex 11.75 20.3516 0.5
      vertex -6.90335 14.7189 0.5
      vertex 16.1516 1.85152 0.5
    endloop
  endfacet
  facet normal 0 0 1
    outer loop
      vertex 16.1516 1.85152 0.5
      vertex -6.90335 14.7189 0.5
      vertex 15.55 0 0.5
    endloop
  endfacet
  facet normal 0 0 1
    outer loop
      vertex 2.45642 23.3713 0.5
      vertex -6.90335 14.7189 0.5
      vertex 7.2619 22.3498 0.5
    endloop
  endfacet
  facet normal 0 0 1
    outer loop
      vertex 16.1516 -1.85152 0.5
      vertex 11.75 -20.3516 0.5
      vertex 15.7246 -17.4639 0.5
    endloop
  endfacet
  facet normal 0 0 1
    outer loop
      vertex -6.90335 14.7189 0.5
      vertex 2.45642 23.3713 0.5
      vertex -6.75625 16.6601 0.5
    endloop
  endfacet
  facet normal -0 0 1
    outer loop
      vertex -6.75625 -16.6601 0.5
      vertex 11.75 -20.3516 0.5
      vertex 16.1516 -1.85152 0.5
    endloop
  endfacet
  facet normal 0 0 1
    outer loop
      vertex -6.75625 16.6601 0.5
      vertex 2.45642 23.3713 0.5
      vertex -2.45642 23.3713 0.5
    endloop
  endfacet
  facet normal 0 0 1
    outer loop
      vertex 11.75 -20.3516 0.5
      vertex -6.75625 -16.6601 0.5
      vertex 7.2619 -22.3498 0.5
    endloop
  endfacet
  facet normal 0 0 1
    outer loop
      vertex 7.2619 -22.3498 0.5
      vertex -6.75625 -16.6601 0.5
      vertex 2.45642 -23.3713 0.5
    endloop
  endfacet
  facet normal 0 0 1
    outer loop
      vertex -7.77828 18.3171 0.5
      vertex -2.45642 23.3713 0.5
      vertex -7.2619 22.3498 0.5
    endloop
  endfacet
  facet normal 0 0 1
    outer loop
      vertex -2.45642 23.3713 0.5
      vertex -7.77828 18.3171 0.5
      vertex -6.75625 16.6601 0.5
    endloop
  endfacet
  facet normal 0 0 1
    outer loop
      vertex -7.2619 22.3498 0.5
      vertex -9.57905 19.0569 0.5
      vertex -7.77828 18.3171 0.5
    endloop
  endfacet
  facet normal -0 0 1
    outer loop
      vertex -11.75 20.3516 0.5
      vertex -9.57905 19.0569 0.5
      vertex -7.2619 22.3498 0.5
    endloop
  endfacet
  facet normal 0 0 1
    outer loop
      vertex -9.57905 19.0569 0.5
      vertex -11.75 20.3516 0.5
      vertex -11.4707 18.5969 0.5
    endloop
  endfacet
  facet normal 0 0 1
    outer loop
      vertex -11.75 20.3516 0.5
      vertex -12.7308 17.1129 0.5
      vertex -11.4707 18.5969 0.5
    endloop
  endfacet
  facet normal 0 0 1
    outer loop
      vertex -19.0119 13.813 0.5
      vertex -12.8779 15.1716 0.5
      vertex -15.7246 17.4639 0.5
    endloop
  endfacet
  facet normal 0 0 1
    outer loop
      vertex -12.7308 17.1129 0.5
      vertex -15.7246 17.4639 0.5
      vertex -12.8779 15.1716 0.5
    endloop
  endfacet
  facet normal -0 0 1
    outer loop
      vertex -15.7246 17.4639 0.5
      vertex -12.7308 17.1129 0.5
      vertex -11.75 20.3516 0.5
    endloop
  endfacet
  facet normal -0.587785 0.809017 0
    outer loop
      vertex -11.75 20.3516 -0.5
      vertex -15.7246 17.4639 0.5
      vertex -11.75 20.3516 0.5
    endloop
  endfacet
  facet normal -0.587785 0.809017 0
    outer loop
      vertex -15.7246 17.4639 0.5
      vertex -11.75 20.3516 -0.5
      vertex -15.7246 17.4639 -0.5
    endloop
  endfacet
  facet normal -0.207912 0.978148 0
    outer loop
      vertex -2.45642 23.3713 -0.5
      vertex -7.2619 22.3498 0.5
      vertex -2.45642 23.3713 0.5
    endloop
  endfacet
  facet normal -0.207912 0.978148 0
    outer loop
      vertex -7.2619 22.3498 0.5
      vertex -2.45642 23.3713 -0.5
      vertex -7.2619 22.3498 -0.5
    endloop
  endfacet
  facet normal 0.994522 -0.104528 0
    outer loop
      vertex 22.9865 -4.88592 0.5
      vertex 23.5 0 -0.5
      vertex 23.5 0 0.5
    endloop
  endfacet
  facet normal 0.994522 -0.104528 0
    outer loop
      vertex 23.5 0 -0.5
      vertex 22.9865 -4.88592 0.5
      vertex 22.9865 -4.88592 -0.5
    endloop
  endfacet
  facet normal 0 0 -1
    outer loop
      vertex 22.9865 -4.88592 -0.5
      vertex 22.9865 4.88592 -0.5
      vertex 23.5 0 -0.5
    endloop
  endfacet
  facet normal 0 0 -1
    outer loop
      vertex 21.4683 -9.55831 -0.5
      vertex 22.9865 4.88592 -0.5
      vertex 22.9865 -4.88592 -0.5
    endloop
  endfacet
  facet normal 0 0 -1
    outer loop
      vertex 21.4683 -9.55831 -0.5
      vertex 21.4683 9.55831 -0.5
      vertex 22.9865 4.88592 -0.5
    endloop
  endfacet
  facet normal 0 0 -1
    outer loop
      vertex 19.0119 -13.813 -0.5
      vertex 21.4683 9.55831 -0.5
      vertex 21.4683 -9.55831 -0.5
    endloop
  endfacet
  facet normal 0 0 -1
    outer loop
      vertex 19.0119 -13.813 -0.5
      vertex 19.0119 13.813 -0.5
      vertex 21.4683 9.55831 -0.5
    endloop
  endfacet
  facet normal 0 0 -1
    outer loop
      vertex 15.7246 -17.4639 -0.5
      vertex 19.0119 13.813 -0.5
      vertex 19.0119 -13.813 -0.5
    endloop
  endfacet
  facet normal 0 0 -1
    outer loop
      vertex 15.7246 -17.4639 -0.5
      vertex 15.7246 17.4639 -0.5
      vertex 19.0119 13.813 -0.5
    endloop
  endfacet
  facet normal 0 0 -1
    outer loop
      vertex 11.75 -20.3516 -0.5
      vertex 15.7246 17.4639 -0.5
      vertex 15.7246 -17.4639 -0.5
    endloop
  endfacet
  facet normal 0 0 -1
    outer loop
      vertex 11.75 -20.3516 -0.5
      vertex 11.75 20.3516 -0.5
      vertex 15.7246 17.4639 -0.5
    endloop
  endfacet
  facet normal 0 0 -1
    outer loop
      vertex 7.2619 -22.3498 -0.5
      vertex 11.75 20.3516 -0.5
      vertex 11.75 -20.3516 -0.5
    endloop
  endfacet
  facet normal 0 0 -1
    outer loop
      vertex 7.2619 -22.3498 -0.5
      vertex 7.2619 22.3498 -0.5
      vertex 11.75 20.3516 -0.5
    endloop
  endfacet
  facet normal 0 0 -1
    outer loop
      vertex 2.45642 -23.3713 -0.5
      vertex 7.2619 22.3498 -0.5
      vertex 7.2619 -22.3498 -0.5
    endloop
  endfacet
  facet normal 0 0 -1
    outer loop
      vertex 2.45642 -23.3713 -0.5
      vertex 2.45642 23.3713 -0.5
      vertex 7.2619 22.3498 -0.5
    endloop
  endfacet
  facet normal 0 0 -1
    outer loop
      vertex -2.45642 -23.3713 -0.5
      vertex 2.45642 23.3713 -0.5
      vertex 2.45642 -23.3713 -0.5
    endloop
  endfacet
  facet normal 0 0 -1
    outer loop
      vertex -2.45642 -23.3713 -0.5
      vertex -2.45642 23.3713 -0.5
      vertex 2.45642 23.3713 -0.5
    endloop
  endfacet
  facet normal 0 0 -1
    outer loop
      vertex -7.2619 -22.3498 -0.5
      vertex -2.45642 23.3713 -0.5
      vertex -2.45642 -23.3713 -0.5
    endloop
  endfacet
  facet normal 0 0 -1
    outer loop
      vertex -7.2619 -22.3498 -0.5
      vertex -7.2619 22.3498 -0.5
      vertex -2.45642 23.3713 -0.5
    endloop
  endfacet
  facet normal 0 0 -1
    outer loop
      vertex -7.2619 -22.3498 -0.5
      vertex -11.75 20.3516 -0.5
      vertex -7.2619 22.3498 -0.5
    endloop
  endfacet
  facet normal 0 0 -1
    outer loop
      vertex -11.75 -20.3516 -0.5
      vertex -11.75 20.3516 -0.5
      vertex -7.2619 -22.3498 -0.5
    endloop
  endfacet
  facet normal 0 0 -1
    outer loop
      vertex -15.7246 -17.4639 -0.5
      vertex -11.75 20.3516 -0.5
      vertex -11.75 -20.3516 -0.5
    endloop
  endfacet
  facet normal 0 0 -1
    outer loop
      vertex -15.7246 -17.4639 -0.5
      vertex -15.7246 17.4639 -0.5
      vertex -11.75 20.3516 -0.5
    endloop
  endfacet
  facet normal 0 0 -1
    outer loop
      vertex -19.0119 -13.813 -0.5
      vertex -15.7246 17.4639 -0.5
      vertex -15.7246 -17.4639 -0.5
    endloop
  endfacet
  facet normal 0 0 -1
    outer loop
      vertex -19.0119 -13.813 -0.5
      vertex -19.0119 13.813 -0.5
      vertex -15.7246 17.4639 -0.5
    endloop
  endfacet
  facet normal 0 0 -1
    outer loop
      vertex -21.4683 -9.55831 -0.5
      vertex -19.0119 13.813 -0.5
      vertex -19.0119 -13.813 -0.5
    endloop
  endfacet
  facet normal 0 0 -1
    outer loop
      vertex -21.4683 -9.55831 -0.5
      vertex -21.4683 9.55831 -0.5
      vertex -19.0119 13.813 -0.5
    endloop
  endfacet
  facet normal 0 0 -1
    outer loop
      vertex -22.9865 -4.88592 -0.5
      vertex -21.4683 9.55831 -0.5
      vertex -21.4683 -9.55831 -0.5
    endloop
  endfacet
  facet normal 0 0 -1
    outer loop
      vertex -22.9865 -4.88592 -0.5
      vertex -22.9865 4.88592 -0.5
      vertex -21.4683 9.55831 -0.5
    endloop
  endfacet
  facet normal 0 -0 -1
    outer loop
      vertex -22.9865 4.88592 -0.5
      vertex -22.9865 -4.88592 -0.5
      vertex -23.5 0 -0.5
    endloop
  endfacet
  facet normal 0.743145 -0.669131 0
    outer loop
      vertex 15.7246 -17.4639 0.5
      vertex 19.0119 -13.813 -0.5
      vertex 19.0119 -13.813 0.5
    endloop
  endfacet
  facet normal 0.743145 -0.669131 0
    outer loop
      vertex 19.0119 -13.813 -0.5
      vertex 15.7246 -17.4639 0.5
      vertex 15.7246 -17.4639 -0.5
    endloop
  endfacet
  facet normal 0.951057 -0.309017 0
    outer loop
      vertex 21.4683 -9.55831 0.5
      vertex 22.9865 -4.88592 -0.5
      vertex 22.9865 -4.88592 0.5
    endloop
  endfacet
  facet normal 0.951057 -0.309017 0
    outer loop
      vertex 22.9865 -4.88592 -0.5
      vertex 21.4683 -9.55831 0.5
      vertex 21.4683 -9.55831 -0.5
    endloop
  endfacet
  facet normal 0.866025 -0.5 0
    outer loop
      vertex 19.0119 -13.813 0.5
      vertex 21.4683 -9.55831 -0.5
      vertex 21.4683 -9.55831 0.5
    endloop
  endfacet
  facet normal 0.866025 -0.5 0
    outer loop
      vertex 21.4683 -9.55831 -0.5
      vertex 19.0119 -13.813 0.5
      vertex 19.0119 -13.813 -0.5
    endloop
  endfacet
  facet normal -0.866025 -0.5 0
    outer loop
      vertex -19.0119 -13.813 -0.5
      vertex -21.4683 -9.55831 0.5
      vertex -21.4683 -9.55831 -0.5
    endloop
  endfacet
  facet normal -0.866025 -0.5 0
    outer loop
      vertex -21.4683 -9.55831 0.5
      vertex -19.0119 -13.813 -0.5
      vertex -19.0119 -13.813 0.5
    endloop
  endfacet
  facet normal -0.994522 -0.104528 0
    outer loop
      vertex -22.9865 -4.88592 -0.5
      vertex -23.5 0 0.5
      vertex -23.5 0 -0.5
    endloop
  endfacet
  facet normal -0.994522 -0.104528 0
    outer loop
      vertex -23.5 0 0.5
      vertex -22.9865 -4.88592 -0.5
      vertex -22.9865 -4.88592 0.5
    endloop
  endfacet
  facet normal 0.587786 -0.809017 0
    outer loop
      vertex 11.75 -20.3516 -0.5
      vertex 15.7246 -17.4639 0.5
      vertex 11.75 -20.3516 0.5
    endloop
  endfacet
  facet normal 0.587786 -0.809017 0
    outer loop
      vertex 15.7246 -17.4639 0.5
      vertex 11.75 -20.3516 -0.5
      vertex 15.7246 -17.4639 -0.5
    endloop
  endfacet
  facet normal -0.207912 -0.978148 0
    outer loop
      vertex -7.2619 -22.3498 -0.5
      vertex -2.45642 -23.3713 0.5
      vertex -7.2619 -22.3498 0.5
    endloop
  endfacet
  facet normal -0.207912 -0.978148 -0
    outer loop
      vertex -2.45642 -23.3713 0.5
      vertex -7.2619 -22.3498 -0.5
      vertex -2.45642 -23.3713 -0.5
    endloop
  endfacet
  facet normal -0.406736 -0.913546 0
    outer loop
      vertex -11.75 -20.3516 -0.5
      vertex -7.2619 -22.3498 0.5
      vertex -11.75 -20.3516 0.5
    endloop
  endfacet
  facet normal -0.406736 -0.913546 -0
    outer loop
      vertex -7.2619 -22.3498 0.5
      vertex -11.75 -20.3516 -0.5
      vertex -7.2619 -22.3498 -0.5
    endloop
  endfacet
  facet normal -0.743145 -0.669131 0
    outer loop
      vertex -15.7246 -17.4639 -0.5
      vertex -19.0119 -13.813 0.5
      vertex -19.0119 -13.813 -0.5
    endloop
  endfacet
  facet normal -0.743145 -0.669131 0
    outer loop
      vertex -19.0119 -13.813 0.5
      vertex -15.7246 -17.4639 -0.5
      vertex -15.7246 -17.4639 0.5
    endloop
  endfacet
  facet normal -0.951057 -0.309017 0
    outer loop
      vertex -21.4683 -9.55831 -0.5
      vertex -22.9865 -4.88592 0.5
      vertex -22.9865 -4.88592 -0.5
    endloop
  endfacet
  facet normal -0.951057 -0.309017 0
    outer loop
      vertex -22.9865 -4.88592 0.5
      vertex -21.4683 -9.55831 -0.5
      vertex -21.4683 -9.55831 0.5
    endloop
  endfacet
  facet normal 0.406736 -0.913546 0
    outer loop
      vertex 7.2619 -22.3498 -0.5
      vertex 11.75 -20.3516 0.5
      vertex 7.2619 -22.3498 0.5
    endloop
  endfacet
  facet normal 0.406736 -0.913546 0
    outer loop
      vertex 11.75 -20.3516 0.5
      vertex 7.2619 -22.3498 -0.5
      vertex 11.75 -20.3516 -0.5
    endloop
  endfacet
  facet normal 0.207912 -0.978148 0
    outer loop
      vertex 2.45642 -23.3713 -0.5
      vertex 7.2619 -22.3498 0.5
      vertex 2.45642 -23.3713 0.5
    endloop
  endfacet
  facet normal 0.207912 -0.978148 0
    outer loop
      vertex 7.2619 -22.3498 0.5
      vertex 2.45642 -23.3713 -0.5
      vertex 7.2619 -22.3498 -0.5
    endloop
  endfacet
  facet normal -0.587786 -0.809017 0
    outer loop
      vertex -15.7246 -17.4639 -0.5
      vertex -11.75 -20.3516 0.5
      vertex -15.7246 -17.4639 0.5
    endloop
  endfacet
  facet normal -0.587786 -0.809017 -0
    outer loop
      vertex -11.75 -20.3516 0.5
      vertex -15.7246 -17.4639 -0.5
      vertex -11.75 -20.3516 -0.5
    endloop
  endfacet
  facet normal 0.951056 0.309017 0
    outer loop
      vertex 21.85 0 16
      vertex 21.2484 1.85152 0.5
      vertex 21.2484 1.85152 16
    endloop
  endfacet
  facet normal 0.951056 0.309017 0
    outer loop
      vertex 21.2484 1.85152 0.5
      vertex 21.85 0 16
      vertex 21.85 0 0.5
    endloop
  endfacet
  facet normal -0.951056 0.309017 0
    outer loop
      vertex 15.55 0 0.5
      vertex 16.1516 1.85152 16
      vertex 16.1516 1.85152 0.5
    endloop
  endfacet
  facet normal -0.951056 0.309017 0
    outer loop
      vertex 16.1516 1.85152 16
      vertex 15.55 0 0.5
      vertex 15.55 0 16
    endloop
  endfacet
  facet normal 0 -1 0
    outer loop
      vertex 17.7266 -2.99583 0.5
      vertex 19.6734 -2.99583 16
      vertex 17.7266 -2.99583 16
    endloop
  endfacet
  facet normal 0 -1 -0
    outer loop
      vertex 19.6734 -2.99583 16
      vertex 17.7266 -2.99583 0.5
      vertex 19.6734 -2.99583 0.5
    endloop
  endfacet
  facet normal 0 1 -0
    outer loop
      vertex 19.6734 2.99583 0.5
      vertex 17.7266 2.99583 16
      vertex 19.6734 2.99583 16
    endloop
  endfacet
  facet normal 0 1 0
    outer loop
      vertex 17.7266 2.99583 16
      vertex 19.6734 2.99583 0.5
      vertex 17.7266 2.99583 0.5
    endloop
  endfacet
  facet normal 0.587785 0.809017 -0
    outer loop
      vertex 21.2484 1.85152 0.5
      vertex 19.6734 2.99583 16
      vertex 21.2484 1.85152 16
    endloop
  endfacet
  facet normal 0.587785 0.809017 0
    outer loop
      vertex 19.6734 2.99583 16
      vertex 21.2484 1.85152 0.5
      vertex 19.6734 2.99583 0.5
    endloop
  endfacet
  facet normal 0 0 1
    outer loop
      vertex 21.2484 1.85152 16
      vertex 21.2484 -1.85152 16
      vertex 21.85 0 16
    endloop
  endfacet
  facet normal 0 0 1
    outer loop
      vertex 19.6734 2.99583 16
      vertex 21.2484 -1.85152 16
      vertex 21.2484 1.85152 16
    endloop
  endfacet
  facet normal 0 0 1
    outer loop
      vertex 19.6734 2.99583 16
      vertex 19.6734 -2.99583 16
      vertex 21.2484 -1.85152 16
    endloop
  endfacet
  facet normal -0 0 1
    outer loop
      vertex 17.7266 2.99583 16
      vertex 19.6734 -2.99583 16
      vertex 19.6734 2.99583 16
    endloop
  endfacet
  facet normal 0 0 1
    outer loop
      vertex 17.7266 2.99583 16
      vertex 17.7266 -2.99583 16
      vertex 19.6734 -2.99583 16
    endloop
  endfacet
  facet normal -0 0 1
    outer loop
      vertex 16.1516 1.85152 16
      vertex 17.7266 -2.99583 16
      vertex 17.7266 2.99583 16
    endloop
  endfacet
  facet normal 0 0 1
    outer loop
      vertex 16.1516 1.85152 16
      vertex 16.1516 -1.85152 16
      vertex 17.7266 -2.99583 16
    endloop
  endfacet
  facet normal 0 -0 1
    outer loop
      vertex 16.1516 -1.85152 16
      vertex 16.1516 1.85152 16
      vertex 15.55 0 16
    endloop
  endfacet
  facet normal -0.587785 0.809017 0
    outer loop
      vertex 17.7266 2.99583 0.5
      vertex 16.1516 1.85152 16
      vertex 17.7266 2.99583 16
    endloop
  endfacet
  facet normal -0.587785 0.809017 0
    outer loop
      vertex 16.1516 1.85152 16
      vertex 17.7266 2.99583 0.5
      vertex 16.1516 1.85152 0.5
    endloop
  endfacet
  facet normal -0.951056 -0.309017 0
    outer loop
      vertex 16.1516 -1.85152 0.5
      vertex 15.55 0 16
      vertex 15.55 0 0.5
    endloop
  endfacet
  facet normal -0.951056 -0.309017 0
    outer loop
      vertex 15.55 0 16
      vertex 16.1516 -1.85152 0.5
      vertex 16.1516 -1.85152 16
    endloop
  endfacet
  facet normal 0.587785 -0.809017 0
    outer loop
      vertex 19.6734 -2.99583 0.5
      vertex 21.2484 -1.85152 16
      vertex 19.6734 -2.99583 16
    endloop
  endfacet
  facet normal 0.587785 -0.809017 0
    outer loop
      vertex 21.2484 -1.85152 16
      vertex 19.6734 -2.99583 0.5
      vertex 21.2484 -1.85152 0.5
    endloop
  endfacet
  facet normal -0.587785 -0.809017 0
    outer loop
      vertex 16.1516 -1.85152 0.5
      vertex 17.7266 -2.99583 16
      vertex 16.1516 -1.85152 16
    endloop
  endfacet
  facet normal -0.587785 -0.809017 -0
    outer loop
      vertex 17.7266 -2.99583 16
      vertex 16.1516 -1.85152 0.5
      vertex 17.7266 -2.99583 0.5
    endloop
  endfacet
  facet normal 0.951056 -0.309017 0
    outer loop
      vertex 21.2484 -1.85152 16
      vertex 21.85 0 0.5
      vertex 21.85 0 16
    endloop
  endfacet
  facet normal 0.951056 -0.309017 0
    outer loop
      vertex 21.85 0 0.5
      vertex 21.2484 -1.85152 16
      vertex 21.2484 -1.85152 0.5
    endloop
  endfacet
  facet normal -0.762292 0.647233 0
    outer loop
      vertex -12.7308 17.1129 0.5
      vertex -11.4707 18.5969 16
      vertex -11.4707 18.5969 0.5
    endloop
  endfacet
  facet normal -0.762292 0.647233 0
    outer loop
      vertex -11.4707 18.5969 16
      vertex -12.7308 17.1129 0.5
      vertex -12.7308 17.1129 16
    endloop
  endfacet
  facet normal -0.997141 0.0755589 0
    outer loop
      vertex -12.8779 15.1716 0.5
      vertex -12.7308 17.1129 16
      vertex -12.7308 17.1129 0.5
    endloop
  endfacet
  facet normal -0.997141 0.0755589 0
    outer loop
      vertex -12.7308 17.1129 16
      vertex -12.8779 15.1716 0.5
      vertex -12.8779 15.1716 16
    endloop
  endfacet
  facet normal 0.762292 -0.647234 0
    outer loop
      vertex -8.16339 13.2349 16
      vertex -6.90335 14.7189 0.5
      vertex -6.90335 14.7189 16
    endloop
  endfacet
  facet normal 0.762292 -0.647234 0
    outer loop
      vertex -6.90335 14.7189 0.5
      vertex -8.16339 13.2349 16
      vertex -8.16339 13.2349 0.5
    endloop
  endfacet
  facet normal -0.379994 -0.924989 0
    outer loop
      vertex -11.8558 13.5147 0.5
      vertex -10.0551 12.7749 16
      vertex -11.8558 13.5147 16
    endloop
  endfacet
  facet normal -0.379994 -0.924989 -0
    outer loop
      vertex -10.0551 12.7749 16
      vertex -11.8558 13.5147 0.5
      vertex -10.0551 12.7749 0.5
    endloop
  endfacet
  facet normal 0.851117 0.524977 0
    outer loop
      vertex -6.75625 16.6601 16
      vertex -7.77828 18.3171 0.5
      vertex -7.77828 18.3171 16
    endloop
  endfacet
  facet normal 0.851117 0.524977 0
    outer loop
      vertex -7.77828 18.3171 0.5
      vertex -6.75625 16.6601 16
      vertex -6.75625 16.6601 0.5
    endloop
  endfacet
  facet normal 0.997141 -0.0755589 0
    outer loop
      vertex -6.90335 14.7189 16
      vertex -6.75625 16.6601 0.5
      vertex -6.75625 16.6601 16
    endloop
  endfacet
  facet normal 0.997141 -0.0755589 0
    outer loop
      vertex -6.75625 16.6601 0.5
      vertex -6.90335 14.7189 16
      vertex -6.90335 14.7189 0.5
    endloop
  endfacet
  facet normal -0.851117 -0.524977 0
    outer loop
      vertex -11.8558 13.5147 0.5
      vertex -12.8779 15.1716 16
      vertex -12.8779 15.1716 0.5
    endloop
  endfacet
  facet normal -0.851117 -0.524977 0
    outer loop
      vertex -12.8779 15.1716 16
      vertex -11.8558 13.5147 0.5
      vertex -11.8558 13.5147 16
    endloop
  endfacet
  facet normal 0 0 1
    outer loop
      vertex -7.77828 18.3171 16
      vertex -6.90335 14.7189 16
      vertex -6.75625 16.6601 16
    endloop
  endfacet
  facet normal 0 0 1
    outer loop
      vertex -7.77828 18.3171 16
      vertex -8.16339 13.2349 16
      vertex -6.90335 14.7189 16
    endloop
  endfacet
  facet normal 0 0 1
    outer loop
      vertex -9.57905 19.0569 16
      vertex -8.16339 13.2349 16
      vertex -7.77828 18.3171 16
    endloop
  endfacet
  facet normal 0 0 1
    outer loop
      vertex -9.57905 19.0569 16
      vertex -10.0551 12.7749 16
      vertex -8.16339 13.2349 16
    endloop
  endfacet
  facet normal -0 0 1
    outer loop
      vertex -11.4707 18.5969 16
      vertex -10.0551 12.7749 16
      vertex -9.57905 19.0569 16
    endloop
  endfacet
  facet normal 0 0 1
    outer loop
      vertex -11.4707 18.5969 16
      vertex -11.8558 13.5147 16
      vertex -10.0551 12.7749 16
    endloop
  endfacet
  facet normal -0 0 1
    outer loop
      vertex -12.7308 17.1129 16
      vertex -11.8558 13.5147 16
      vertex -11.4707 18.5969 16
    endloop
  endfacet
  facet normal 0 0 1
    outer loop
      vertex -11.8558 13.5147 16
      vertex -12.7308 17.1129 16
      vertex -12.8779 15.1716 16
    endloop
  endfacet
  facet normal 0.236273 -0.971687 0
    outer loop
      vertex -10.0551 12.7749 0.5
      vertex -8.16339 13.2349 16
      vertex -10.0551 12.7749 16
    endloop
  endfacet
  facet normal 0.236273 -0.971687 0
    outer loop
      vertex -8.16339 13.2349 16
      vertex -10.0551 12.7749 0.5
      vertex -8.16339 13.2349 0.5
    endloop
  endfacet
  facet normal -0.236273 0.971687 0
    outer loop
      vertex -9.57905 19.0569 0.5
      vertex -11.4707 18.5969 16
      vertex -9.57905 19.0569 16
    endloop
  endfacet
  facet normal -0.236273 0.971687 0
    outer loop
      vertex -11.4707 18.5969 16
      vertex -9.57905 19.0569 0.5
      vertex -11.4707 18.5969 0.5
    endloop
  endfacet
  facet normal 0.379995 0.924989 -0
    outer loop
      vertex -7.77828 18.3171 0.5
      vertex -9.57905 19.0569 16
      vertex -7.77828 18.3171 16
    endloop
  endfacet
  facet normal 0.379995 0.924989 0
    outer loop
      vertex -9.57905 19.0569 16
      vertex -7.77828 18.3171 0.5
      vertex -9.57905 19.0569 0.5
    endloop
  endfacet
  facet normal -0.236273 -0.971687 0
    outer loop
      vertex -11.4707 -18.5969 0.5
      vertex -9.57905 -19.0569 16
      vertex -11.4707 -18.5969 16
    endloop
  endfacet
  facet normal -0.236273 -0.971687 -0
    outer loop
      vertex -9.57905 -19.0569 16
      vertex -11.4707 -18.5969 0.5
      vertex -9.57905 -19.0569 0.5
    endloop
  endfacet
  facet normal 0.236273 0.971687 -0
    outer loop
      vertex -8.16339 -13.2349 0.5
      vertex -10.0551 -12.7749 16
      vertex -8.16339 -13.2349 16
    endloop
  endfacet
  facet normal 0.236273 0.971687 0
    outer loop
      vertex -10.0551 -12.7749 16
      vertex -8.16339 -13.2349 0.5
      vertex -10.0551 -12.7749 0.5
    endloop
  endfacet
  facet normal 0.997141 0.0755589 0
    outer loop
      vertex -6.75625 -16.6601 16
      vertex -6.90335 -14.7189 0.5
      vertex -6.90335 -14.7189 16
    endloop
  endfacet
  facet normal 0.997141 0.0755589 0
    outer loop
      vertex -6.90335 -14.7189 0.5
      vertex -6.75625 -16.6601 16
      vertex -6.75625 -16.6601 0.5
    endloop
  endfacet
  facet normal 0.762292 0.647234 0
    outer loop
      vertex -6.90335 -14.7189 16
      vertex -8.16339 -13.2349 0.5
      vertex -8.16339 -13.2349 16
    endloop
  endfacet
  facet normal 0.762292 0.647234 0
    outer loop
      vertex -8.16339 -13.2349 0.5
      vertex -6.90335 -14.7189 16
      vertex -6.90335 -14.7189 0.5
    endloop
  endfacet
  facet normal -0.762292 -0.647233 0
    outer loop
      vertex -11.4707 -18.5969 0.5
      vertex -12.7308 -17.1129 16
      vertex -12.7308 -17.1129 0.5
    endloop
  endfacet
  facet normal -0.762292 -0.647233 0
    outer loop
      vertex -12.7308 -17.1129 16
      vertex -11.4707 -18.5969 0.5
      vertex -11.4707 -18.5969 16
    endloop
  endfacet
  facet normal 0.379995 -0.924989 0
    outer loop
      vertex -9.57905 -19.0569 0.5
      vertex -7.77828 -18.3171 16
      vertex -9.57905 -19.0569 16
    endloop
  endfacet
  facet normal 0.379995 -0.924989 0
    outer loop
      vertex -7.77828 -18.3171 16
      vertex -9.57905 -19.0569 0.5
      vertex -7.77828 -18.3171 0.5
    endloop
  endfacet
  facet normal 0.851117 -0.524977 0
    outer loop
      vertex -7.77828 -18.3171 16
      vertex -6.75625 -16.6601 0.5
      vertex -6.75625 -16.6601 16
    endloop
  endfacet
  facet normal 0.851117 -0.524977 0
    outer loop
      vertex -6.75625 -16.6601 0.5
      vertex -7.77828 -18.3171 16
      vertex -7.77828 -18.3171 0.5
    endloop
  endfacet
  facet normal -0.997141 -0.0755589 0
    outer loop
      vertex -12.7308 -17.1129 0.5
      vertex -12.8779 -15.1716 16
      vertex -12.8779 -15.1716 0.5
    endloop
  endfacet
  facet normal -0.997141 -0.0755589 0
    outer loop
      vertex -12.8779 -15.1716 16
      vertex -12.7308 -17.1129 0.5
      vertex -12.7308 -17.1129 16
    endloop
  endfacet
  facet normal -0.851117 0.524977 0
    outer loop
      vertex -12.8779 -15.1716 0.5
      vertex -11.8558 -13.5147 16
      vertex -11.8558 -13.5147 0.5
    endloop
  endfacet
  facet normal -0.851117 0.524977 0
    outer loop
      vertex -11.8558 -13.5147 16
      vertex -12.8779 -15.1716 0.5
      vertex -12.8779 -15.1716 16
    endloop
  endfacet
  facet normal 0 0 1
    outer loop
      vertex -6.90335 -14.7189 16
      vertex -7.77828 -18.3171 16
      vertex -6.75625 -16.6601 16
    endloop
  endfacet
  facet normal 0 0 1
    outer loop
      vertex -8.16339 -13.2349 16
      vertex -7.77828 -18.3171 16
      vertex -6.90335 -14.7189 16
    endloop
  endfacet
  facet normal 0 0 1
    outer loop
      vertex -8.16339 -13.2349 16
      vertex -9.57905 -19.0569 16
      vertex -7.77828 -18.3171 16
    endloop
  endfacet
  facet normal 0 0 1
    outer loop
      vertex -10.0551 -12.7749 16
      vertex -9.57905 -19.0569 16
      vertex -8.16339 -13.2349 16
    endloop
  endfacet
  facet normal 0 0 1
    outer loop
      vertex -10.0551 -12.7749 16
      vertex -11.4707 -18.5969 16
      vertex -9.57905 -19.0569 16
    endloop
  endfacet
  facet normal -0 0 1
    outer loop
      vertex -11.8558 -13.5147 16
      vertex -11.4707 -18.5969 16
      vertex -10.0551 -12.7749 16
    endloop
  endfacet
  facet normal 0 0 1
    outer loop
      vertex -11.8558 -13.5147 16
      vertex -12.7308 -17.1129 16
      vertex -11.4707 -18.5969 16
    endloop
  endfacet
  facet normal 0 -0 1
    outer loop
      vertex -12.7308 -17.1129 16
      vertex -11.8558 -13.5147 16
      vertex -12.8779 -15.1716 16
    endloop
  endfacet
  facet normal -0.379994 0.924989 0
    outer loop
      vertex -10.0551 -12.7749 0.5
      vertex -11.8558 -13.5147 16
      vertex -10.0551 -12.7749 16
    endloop
  endfacet
  facet normal -0.379994 0.924989 0
    outer loop
      vertex -11.8558 -13.5147 16
      vertex -10.0551 -12.7749 0.5
      vertex -11.8558 -13.5147 0.5
    endloop
  endfacet
endsolid OpenSCAD_Model
